<svg xmlns="http://www.w3.org/2000/svg" xmlns:xlink="http://www.w3.org/1999/xlink" id="Layer_1" x="0px" y="0px" width="100px" height="100px" viewBox="0 0 100 100" xml:space="preserve">
<path opacity="0.16" fill="#00D4C6" d="M100.078,76.938c0.779,8.91-5.813,16.771-14.725,17.549  L23.19,99.924c-8.914,0.779-16.77-5.814-17.55-14.729L0.203,23.036c-0.78-8.913,5.813-16.77,14.727-17.55l62.16-5.437  c8.912-0.78,16.771,5.814,17.551,14.737l5.438,62.159L100.078,76.938L100.078,76.938z"></path>
<g>
	
		<linearGradient id="SVGID_1_" gradientUnits="userSpaceOnUse" x1="18.5146" y1="-21.1377" x2="98.5117" y2="-21.1377" gradientTransform="matrix(1 0 0 -1 -8.3599 29.0156)">
		<stop offset="0" style="stop-color:#293E6A"></stop>
		<stop offset="1" style="stop-color:#00D4C6"></stop>
	</linearGradient>
	<path fill="url(#SVGID_1_)" d="M61.247,90.153c-7.396,0-14.791,0-22.186,0c-0.692-0.413-0.975-1.015-0.926-1.823   c0.048-0.778-0.009-1.563,0.021-2.344c0.111-2.831,1.905-5.236,4.552-6.11c0.461-0.155,0.945-0.249,1.414-0.369   c-0.012-0.061-0.009-0.093-0.021-0.11c-4.124-4.983-1.202-11.88,4.281-13.03c0.161-0.031,0.403-0.235,0.409-0.365   c0.037-0.847,0.018-1.693,0.018-2.521c-2.248-0.264-2.248-0.264-2.757-2.414c-0.005-0.025-0.02-0.049-0.021-0.074   c-0.059-1.53-0.798-2.412-2.379-2.494c-0.049-0.002-0.104-0.053-0.149-0.04c-0.271,0.069-0.618,0.069-0.798,0.241   c-0.675,0.649-1.294,1.356-1.938,2.035c-0.487,0.518-1.074,0.66-1.696,0.313c-1.473-0.827-2.934-1.673-4.376-2.545   c-0.605-0.364-0.764-0.953-0.555-1.635c0.257-0.847,0.483-1.702,0.779-2.534c0.157-0.44-0.015-0.675-0.263-1.025   c-0.925-1.304-2.04-1.569-3.43-0.811c-0.112,0.062-0.244,0.084-0.369,0.121c-1.686,0.514-1.704,0.508-2.795-0.902   c-0.022-0.03-0.093-0.028-0.207-0.062c-1.353,1.36-2.742,2.729-4.088,4.137c-0.2,0.206-0.277,0.604-0.279,0.915   c-0.02,2.942,0,5.883-0.021,8.826c-0.005,0.519,0.104,0.756,0.668,0.9c5.503,1.412,7.792,7.848,4.454,12.444   c-0.143,0.198-0.279,0.396-0.448,0.637c0.257,0.063,0.433,0.105,0.611,0.145c2.781,0.621,4.58,2.314,5.211,5.077   c0.256,1.124,0.13,2.331,0.207,3.496c0.056,0.816-0.177,1.474-0.89,1.923c-7.709,0-15.416,0-23.125,0c0-1.667,0-3.334,0-4.999   c0.05-0.117,0.117-0.227,0.148-0.347c0.707-2.825,2.487-4.542,5.328-5.167c0.167-0.037,0.329-0.099,0.513-0.15   c-4.083-4.987-1.442-12.098,4.668-13.291c0-0.272,0-0.557,0-0.837c0-3.073,0.021-6.143-0.015-9.214   c-0.009-0.846,0.25-1.478,0.862-2.063c1.671-1.6,3.294-3.245,4.914-4.851c-1.013-2.134-1.444-2.215,0.566-3.819   c1.223-0.973,1.668-1.935,1.016-3.408c-0.194-0.438-0.366-0.671-0.825-0.762c-0.865-0.172-1.72-0.397-2.582-0.595   c-0.742-0.167-1.111-0.652-1.137-1.383c-0.043-1.249-0.118-2.497-0.062-3.743c0.102-2.274,0.117-2.405,2.358-2.768   c1.626-0.264,2.509-0.96,2.601-2.589c0.016-0.265-0.055-0.618-0.226-0.796c-0.629-0.658-1.311-1.264-1.982-1.879   c-0.578-0.529-0.705-1.142-0.337-1.827c0.601-1.122,1.182-2.258,1.854-3.337c1.147-1.841,1.296-1.976,3.324-1.173   c1.527,0.605,2.649,0.487,3.54-0.906c0.156-0.245,0.287-0.606,0.227-0.868c-0.199-0.857-0.48-1.698-0.749-2.541   c-0.237-0.743-0.07-1.336,0.599-1.752c1.06-0.659,2.103-1.347,3.194-1.946c1.955-1.071,2.186-1.1,3.592,0.648   c1,1.24,2.004,1.709,3.461,0.998c0.021-0.012,0.056-0.011,0.073-0.028c0.196-0.196,0.494-0.364,0.563-0.6   c0.254-0.872,0.431-1.766,0.642-2.65c0.176-0.737,0.591-1.198,1.396-1.23c0.202-0.005,0.401-0.081,0.602-0.125   c1.25,0,2.499,0,3.75,0c0.123,0.039,0.241,0.095,0.369,0.111c1.214,0.164,1.397,0.332,1.683,1.561   c0.054,0.228,0.144,0.454,0.153,0.684c0.061,1.67,0.907,2.582,2.586,2.659c0.261,0.012,0.604-0.06,0.779-0.227   c0.641-0.611,1.234-1.27,1.825-1.929c0.57-0.64,1.229-0.76,1.959-0.347c1.381,0.778,2.754,1.57,4.115,2.382   c0.689,0.413,0.904,1.025,0.645,1.811c-0.276,0.838-0.532,1.686-0.767,2.538c-0.055,0.2-0.071,0.512,0.041,0.641   c0.48,0.547,0.999,1.063,1.541,1.549c0.11,0.098,0.389,0.072,0.564,0.022c0.876-0.248,1.742-0.533,2.614-0.789   c0.726-0.212,1.35-0.073,1.756,0.62c0.827,1.411,1.659,2.822,2.458,4.248c0.363,0.646,0.242,1.254-0.306,1.768   c-0.664,0.623-1.337,1.238-1.988,1.877c-0.15,0.15-0.353,0.399-0.319,0.561c0.139,0.711,0.33,1.417,0.565,2.104   c0.056,0.159,0.34,0.286,0.543,0.338c0.879,0.229,1.768,0.427,2.656,0.63c0.763,0.174,1.187,0.648,1.198,1.423   c0.021,1.612,0.021,3.224,0.004,4.837c-0.009,0.767-0.4,1.264-1.177,1.438c-0.887,0.198-1.776,0.392-2.654,0.635   c-0.234,0.066-0.534,0.259-0.613,0.464c-0.773,2.058-0.763,2.063,0.857,3.548c1.751,1.606,1.751,1.606,0.69,3.733   c-0.02,0.041-0.009,0.098-0.018,0.227c1.606,1.598,3.233,3.246,4.901,4.853c0.592,0.568,0.827,1.188,0.82,2.004   c-0.031,3.149-0.006,6.301-0.021,9.454c-0.003,0.479,0.093,0.711,0.626,0.849c5.618,1.461,7.857,8.024,4.335,12.632   c-0.1,0.132-0.183,0.276-0.276,0.423c0.102,0.046,0.144,0.075,0.193,0.088c0.15,0.038,0.304,0.067,0.456,0.101   c2.425,0.547,4.067,1.997,4.948,4.313c0.146,0.381,0.253,0.78,0.378,1.172c0,1.665,0,3.332,0,4.999c-7.707,0-15.416,0-23.124,0   c-0.682-0.428-0.938-1.049-0.89-1.845c0.038-0.7-0.011-1.408,0.013-2.109c0.104-3.144,1.969-5.598,4.876-6.422   c0.362-0.103,0.729-0.181,1.127-0.277c-0.072-0.121-0.104-0.192-0.149-0.253c-3.709-4.931-1.613-11.177,4.322-12.848   c0.483-0.132,0.512-0.396,0.511-0.79c-0.009-2.993-0.002-5.989-0.013-8.981c-0.002-0.246-0.022-0.569-0.174-0.724   c-1.403-1.454-2.835-2.88-4.29-4.346c-0.145,0.185-0.228,0.282-0.298,0.383c-0.722,1.047-1.01,1.149-2.22,0.785   c-0.771-0.235-1.539-0.483-2.316-0.692c-0.192-0.051-0.49-0.047-0.621,0.067c-0.508,0.444-0.995,0.923-1.431,1.436   c-0.132,0.152-0.151,0.482-0.097,0.696c0.227,0.854,0.484,1.7,0.763,2.541c0.263,0.783,0.051,1.396-0.643,1.809   c-1.359,0.813-2.737,1.595-4.109,2.387c-0.742,0.427-1.383,0.29-1.952-0.341c-0.591-0.656-1.187-1.317-1.827-1.927   c-0.181-0.174-0.552-0.291-0.791-0.236c-2.052,0.465-2.049,0.478-2.539,2.515c-0.019,0.076-0.038,0.151-0.056,0.227   c-0.465,2.042-0.465,2.04-2.529,2.232c-0.045,0.005-0.088,0.047-0.206,0.117c0,0.65,0.028,1.352-0.009,2.046   c-0.027,0.513,0.16,0.697,0.665,0.828c3.654,0.945,6.063,4.18,5.984,7.963c-0.039,1.925-0.774,3.583-1.979,5.052   c0.078,0.055,0.115,0.093,0.16,0.105c0.176,0.046,0.354,0.079,0.532,0.124c2.706,0.644,4.475,2.31,5.103,5.004   c0.268,1.144,0.136,2.381,0.221,3.572C62.233,89.082,61.978,89.726,61.247,90.153z M71.616,26.075   c-0.432-0.742-0.801-1.433-1.237-2.076c-0.108-0.163-0.467-0.288-0.664-0.239c-0.832,0.206-1.645,0.484-2.465,0.733   c-0.65,0.197-1.204,0.105-1.703-0.42c-0.856-0.906-1.748-1.781-2.643-2.65c-0.477-0.463-0.673-0.969-0.436-1.616   c0.115-0.315,0.197-0.646,0.296-0.969c0.684-2.243,0.688-2.252-1.484-3.224c-0.187-0.083-0.558-0.021-0.706,0.12   c-0.62,0.591-1.203,1.224-1.775,1.866c-0.516,0.582-1.1,0.685-1.829,0.456c-1.013-0.321-2.035-0.653-3.081-0.834   c-0.96-0.166-1.507-0.614-1.651-1.571c-0.04-0.258-0.118-0.507-0.177-0.76c-0.506-2.18-0.506-2.169-2.756-2.063   c-0.436,0.021-0.648,0.143-0.732,0.598c-0.158,0.841-0.404,1.667-0.578,2.506c-0.147,0.702-0.581,1.059-1.25,1.225   c-1.158,0.288-2.314,0.589-3.462,0.918c-0.697,0.201-1.278,0.108-1.759-0.464c-0.2-0.238-0.423-0.458-0.637-0.686   c-1.566-1.667-1.558-1.654-3.478-0.413c-0.393,0.253-0.441,0.489-0.301,0.894c0.259,0.761,0.45,1.548,0.713,2.309   c0.26,0.742,0.042,1.289-0.515,1.807c-0.837,0.779-1.659,1.581-2.425,2.427c-0.544,0.601-1.128,0.771-1.883,0.528   c-0.934-0.302-1.878-0.577-2.867-0.877c-0.491,0.848-0.953,1.649-1.434,2.48c0.767,0.721,1.472,1.409,2.207,2.066   c0.597,0.532,0.739,1.12,0.485,1.888c-0.335,1.009-0.656,2.035-0.843,3.08c-0.171,0.962-0.634,1.496-1.592,1.629   c-0.256,0.036-0.506,0.119-0.759,0.181c-2.179,0.524-2.16,0.522-2.017,2.787c0.03,0.472,0.226,0.623,0.626,0.707   c0.813,0.17,1.622,0.374,2.436,0.553c0.714,0.158,1.095,0.581,1.253,1.311c0.236,1.089,0.502,2.18,0.866,3.232   c0.3,0.867,0.126,1.495-0.547,2.078c-0.724,0.626-1.402,1.305-2.117,1.973c0.414,0.716,0.803,1.362,1.165,2.021   c0.194,0.351,0.4,0.461,0.813,0.313c0.781-0.284,1.593-0.475,2.384-0.737c0.736-0.246,1.296-0.057,1.805,0.521   c0.638,0.719,1.264,1.479,2.02,2.056c1.019,0.771,1.243,1.604,0.784,2.775c-0.296,0.751-0.767,1.764-0.489,2.325   c0.317,0.641,1.379,0.914,2.12,1.344c0.041,0.022,0.099,0.016,0.185,0.027c0.682-0.725,1.383-1.455,2.067-2.204   c0.474-0.52,1.005-0.651,1.687-0.447c1.144,0.346,2.297,0.667,3.461,0.93c0.761,0.17,1.171,0.574,1.327,1.327   c0.204,0.987,0.464,1.962,0.696,2.931c0.999,0,1.925,0,2.878,0c0.24-1.011,0.499-1.963,0.688-2.929   c0.157-0.803,0.621-1.181,1.398-1.353c1.091-0.236,2.178-0.515,3.236-0.863c0.803-0.264,1.397-0.113,1.948,0.514   c0.648,0.734,1.34,1.43,2.035,2.166c0.708-0.413,1.354-0.806,2.014-1.16c0.369-0.203,0.436-0.44,0.305-0.829   c-0.266-0.788-0.469-1.596-0.739-2.384c-0.243-0.708-0.053-1.241,0.482-1.745c0.871-0.818,1.718-1.665,2.534-2.539   c0.51-0.544,1.056-0.693,1.754-0.466c0.815,0.265,1.638,0.515,2.469,0.724c0.188,0.047,0.529-0.037,0.624-0.178   c0.452-0.687,0.847-1.412,1.269-2.137c-0.762-0.719-1.445-1.396-2.166-2.032c-0.621-0.547-0.791-1.141-0.521-1.948   c0.353-1.056,0.659-2.139,0.874-3.23c0.166-0.847,0.622-1.266,1.42-1.43c0.791-0.161,1.585-0.315,2.355-0.547   c0.218-0.065,0.487-0.37,0.514-0.593c0.074-0.615,0.022-1.245,0.04-1.87c0.014-0.405-0.155-0.592-0.564-0.672   c-0.843-0.161-1.674-0.382-2.509-0.573c-0.675-0.154-1.065-0.551-1.229-1.246c-0.271-1.163-0.571-2.32-0.926-3.46   c-0.221-0.711-0.103-1.261,0.442-1.757C70.091,27.528,70.82,26.824,71.616,26.075z M31.385,87.462   c0.631-2.931-1.209-5.285-4.126-5.294c-3.382-0.012-6.765-0.008-10.147,0c-2.968,0.007-4.825,2.347-4.186,5.294   C19.077,87.462,25.235,87.462,31.385,87.462z M40.896,87.448c6.205,0,12.363,0,18.513,0c0.602-3.411-1.782-5.403-4.335-5.311   c-3.248,0.113-6.508,0.125-9.756-0.003C42.641,82.028,40.312,84.068,40.896,87.448z M68.92,87.437c6.177,0,12.351,0,18.518,0   c0.479-3.341-1.636-5.448-4.711-5.305c-3.222,0.148-6.452,0.024-9.678,0.036C70.132,82.18,68.29,84.535,68.92,87.437z    M44.832,74.143c-0.003,2.931,2.371,5.33,5.294,5.354c2.909,0.021,5.333-2.379,5.351-5.295c0.016-2.981-2.369-5.387-5.333-5.376   C47.206,68.835,44.834,71.206,44.832,74.143z M16.839,74.13c-0.01,2.937,2.344,5.335,5.274,5.366   c2.896,0.035,5.347-2.371,5.377-5.281c0.032-2.96-2.37-5.388-5.33-5.388C19.221,68.82,16.849,71.188,16.839,74.13z M83.471,74.16   c0.004-2.947-2.343-5.313-5.291-5.335c-2.917-0.021-5.341,2.364-5.36,5.279c-0.022,2.949,2.41,5.402,5.345,5.392   C81.089,79.486,83.465,77.096,83.471,74.16z"></path>
	
		<linearGradient id="SVGID_2_" gradientUnits="userSpaceOnUse" x1="18.5137" y1="-2.4668" x2="21.1211" y2="-2.4668" gradientTransform="matrix(1 0 0 -1 -8.3599 29.0156)">
		<stop offset="0" style="stop-color:#293E6A"></stop>
		<stop offset="1" style="stop-color:#00D4C6"></stop>
	</linearGradient>
	<path fill="url(#SVGID_2_)" d="M10.154,30.154c0.852,0,1.703,0,2.607,0c0,0.883,0,1.721,0,2.657c-0.867,0-1.736,0-2.607,0   C10.154,31.925,10.154,31.04,10.154,30.154z"></path>
	
		<linearGradient id="SVGID_3_" gradientUnits="userSpaceOnUse" x1="95.9063" y1="-2.4668" x2="98.5137" y2="-2.4668" gradientTransform="matrix(1 0 0 -1 -8.3599 29.0156)">
		<stop offset="0" style="stop-color:#293E6A"></stop>
		<stop offset="1" style="stop-color:#00D4C6"></stop>
	</linearGradient>
	<path fill="url(#SVGID_3_)" d="M90.153,32.811c-0.85,0-1.703,0-2.606,0c0-0.878,0-1.716,0-2.657c0.866,0,1.737,0,2.606,0   C90.153,31.04,90.153,31.925,90.153,32.811z"></path>
	
		<linearGradient id="SVGID_4_" gradientUnits="userSpaceOnUse" x1="18.5137" y1="-7.7793" x2="21.1191" y2="-7.7793" gradientTransform="matrix(1 0 0 -1 -8.3599 29.0156)">
		<stop offset="0" style="stop-color:#293E6A"></stop>
		<stop offset="1" style="stop-color:#00D4C6"></stop>
	</linearGradient>
	<path fill="url(#SVGID_4_)" d="M10.154,35.467c0.849,0,1.699,0,2.605,0c0,0.898,0,1.735,0,2.656c-0.868,0-1.737,0-2.605,0   C10.154,37.238,10.154,36.353,10.154,35.467z"></path>
	
		<linearGradient id="SVGID_5_" gradientUnits="userSpaceOnUse" x1="95.9082" y1="-7.7793" x2="98.5137" y2="-7.7793" gradientTransform="matrix(1 0 0 -1 -8.3599 29.0156)">
		<stop offset="0" style="stop-color:#293E6A"></stop>
		<stop offset="1" style="stop-color:#00D4C6"></stop>
	</linearGradient>
	<path fill="url(#SVGID_5_)" d="M90.153,38.123c-0.848,0-1.701,0-2.605,0c0-0.864,0-1.7,0-2.656c0.867,0,1.736,0,2.605,0   C90.153,36.353,90.153,37.238,90.153,38.123z"></path>
	
		<linearGradient id="SVGID_6_" gradientUnits="userSpaceOnUse" x1="18.5137" y1="-13.0923" x2="21.1172" y2="-13.0923" gradientTransform="matrix(1 0 0 -1 -8.3599 29.0156)">
		<stop offset="0" style="stop-color:#293E6A"></stop>
		<stop offset="1" style="stop-color:#00D4C6"></stop>
	</linearGradient>
	<path fill="url(#SVGID_6_)" d="M10.154,40.779c0.848,0,1.697,0,2.604,0c0,0.92,0,1.754,0,2.657c-0.87,0-1.736,0-2.604,0   C10.154,42.549,10.154,41.665,10.154,40.779z"></path>
	
		<linearGradient id="SVGID_7_" gradientUnits="userSpaceOnUse" x1="95.9082" y1="-13.0923" x2="98.5137" y2="-13.0923" gradientTransform="matrix(1 0 0 -1 -8.3599 29.0156)">
		<stop offset="0" style="stop-color:#293E6A"></stop>
		<stop offset="1" style="stop-color:#00D4C6"></stop>
	</linearGradient>
	<path fill="url(#SVGID_7_)" d="M90.153,43.437c-0.848,0-1.699,0-2.605,0c0-0.843,0-1.679,0-2.657c0.869,0,1.737,0,2.605,0   C90.153,41.665,90.153,42.549,90.153,43.437z"></path>
	
		<linearGradient id="SVGID_8_" gradientUnits="userSpaceOnUse" x1="23.8872" y1="-7.8037" x2="26.4707" y2="-7.8037" gradientTransform="matrix(1 0 0 -1 -8.3599 29.0156)">
		<stop offset="0" style="stop-color:#293E6A"></stop>
		<stop offset="1" style="stop-color:#00D4C6"></stop>
	</linearGradient>
	<path fill="url(#SVGID_8_)" d="M18.111,35.547c0,0.854,0,1.673,0,2.543c-0.865,0-1.701,0-2.583,0c0-0.84,0-1.658,0-2.543   C16.35,35.547,17.185,35.547,18.111,35.547z"></path>
	
		<linearGradient id="SVGID_9_" gradientUnits="userSpaceOnUse" x1="90.5605" y1="-7.8018" x2="93.1387" y2="-7.8018" gradientTransform="matrix(1 0 0 -1 -8.3599 29.0156)">
		<stop offset="0" style="stop-color:#293E6A"></stop>
		<stop offset="1" style="stop-color:#00D4C6"></stop>
	</linearGradient>
	<path fill="url(#SVGID_9_)" d="M82.2,38.101c0-0.873,0-1.692,0-2.566c0.854,0,1.691,0,2.578,0c0,0.851,0,1.688,0,2.566   C83.928,38.101,83.108,38.101,82.2,38.101z"></path>
	
		<linearGradient id="SVGID_10_" gradientUnits="userSpaceOnUse" x1="41.1787" y1="-7.8154" x2="75.8477" y2="-7.8154" gradientTransform="matrix(1 0 0 -1 -8.3599 29.0156)">
		<stop offset="0" style="stop-color:#293E6A"></stop>
		<stop offset="1" style="stop-color:#00D4C6"></stop>
	</linearGradient>
	<path fill="url(#SVGID_10_)" d="M50.191,54.16c-9.485,0.048-17.332-7.741-17.373-17.245c-0.04-9.573,7.682-17.363,17.259-17.413   c9.563-0.049,17.381,7.701,17.411,17.261C67.52,46.313,59.765,54.114,50.191,54.16z M61.643,45.766   c4.088-4.713,4.776-13.506-1.228-19.403c-5.97-5.86-15.547-5.564-21.143,0.643c-5.562,6.17-4.311,14.666-0.596,18.731   c1.082-2.817,3.046-4.736,5.863-5.781c-2.11-3.229-2.401-3.944-2.362-5.962c0.045-2.309,0.952-4.234,2.651-5.787   c2.835-2.588,7.226-2.736,10.262-0.333c1.501,1.188,2.487,2.723,2.873,4.605c0.584,2.854-0.254,5.321-2.25,7.46   C58.601,41.007,60.536,42.92,61.643,45.766z M50.157,42.09c-0.002,0.025-0.003,0.052-0.005,0.078c-0.91,0-1.821-0.014-2.73,0.002   c-3.156,0.057-5.797,2.254-6.443,5.328c-0.095,0.454-0.017,0.76,0.381,1.062c5.11,3.884,12.51,3.884,17.591-0.002   c0.359-0.277,0.476-0.55,0.393-0.985c-0.479-2.553-2.509-4.748-5.076-5.216C52.926,42.112,51.528,42.17,50.157,42.09z    M55.477,34.149c-0.001-2.938-2.366-5.31-5.309-5.321c-2.933-0.012-5.323,2.359-5.335,5.291c-0.013,2.962,2.408,5.397,5.346,5.377   C53.101,39.478,55.478,37.077,55.477,34.149z"></path>
</g>
</svg>