<svg xmlns="http://www.w3.org/2000/svg" xmlns:xlink="http://www.w3.org/1999/xlink" id="Layer_1" x="0px" y="0px" viewBox="0 0 512 512" style="enable-background:new 0 0 512 512;" xml:space="preserve">
<g>
	<path d="M111.4,508.5h112.5c6.3,0,11.5-5.2,11.5-11.5V369.6c0-24.5-9.6-47.6-26.9-64.9l-36.7-36.7c-20-20-52.5-20-72.5,0l-0.2,0.2   c-0.8,0.8-1.5,1.5-2.1,2.3l-6.1,7v-85.7c0-24.1-19.6-43.6-43.6-43.6H15c-6.3,0-11.5,5.2-11.5,11.5v192.8c0,3.1,1.2,6,3.4,8.1l93,93   V497C99.9,503.3,105.1,508.5,111.4,508.5z M26.5,347.6V171.1h20.6c11.4,0,20.6,9.3,20.6,20.6v112.5c0,3.1,1.2,6,3.4,8.1l64.3,64.3   c4.5,4.5,11.8,4.5,16.3,0c2.2-2.2,3.4-5.1,3.4-8.1c0-3.1-1.2-6-3.4-8.1l-0.5-0.5l0.1-0.1c-0.6-0.5-1.1-1-1.6-1.5l-34.1-34.1   c-5.3-5.3-8.3-12.4-8.3-20c0-7.5,2.9-14.6,8.3-20l0.2-0.3c11-10.8,28.8-10.7,39.7,0.2l36.7,36.7c13,13,20.2,30.3,20.2,48.7v115.9   h-89.5v-36.7c0-3.1-1.2-6-3.4-8.1L26.5,347.6z"></path>
	<path d="M380,89.3V34.9c0-5.1-3.4-9.7-8.3-11.1l-28.7-8.2C314.5,7.6,285.2,3.5,256,3.5s-58.5,4.1-86.9,12.2l-28.7,8.2   c-4.9,1.4-8.3,5.9-8.3,11.1v54.4c0,78.9,46.9,150,119.4,181.1c2.9,1.2,6.2,1.2,9.1,0C333.1,239.4,380,168.3,380,89.3z M257.5,246.6   l-1.5,0.7l-1.5-0.7c-29.8-14.1-54.9-36.3-72.5-64.1c-17.7-27.9-27-60.1-27-93.2V43.6l20.4-5.8c52.7-15.1,108.5-15.1,161.2,0   l20.4,5.8v45.7c0,33.1-9.3,65.3-27,93.2C312.4,210.3,287.3,232.5,257.5,246.6z"></path>
	<path d="M315.7,95.3c0-3.1-1.2-6-3.4-8.1c-2.2-2.2-5.1-3.4-8.1-3.4s-6,1.2-8.1,3.4v0L248,135.3l-24-24c-2.2-2.2-5.1-3.4-8.1-3.4   s-6,1.2-8.1,3.4c-4.5,4.5-4.5,11.8,0,16.3l32.1,32.1c2.2,2.2,5.1,3.4,8.1,3.4c3.1,0,6-1.2,8.1-3.4l56.2-56.2   C314.5,101.3,315.7,98.4,315.7,95.3z"></path>
	<path d="M276.6,369.6V497c0,6.3,5.2,11.5,11.5,11.5h112.5c6.3,0,11.5-5.2,11.5-11.5v-43.4l93-93c2.2-2.2,3.4-5.1,3.4-8.1V159.6   c0-6.3-5.2-11.5-11.5-11.5h-32.1c-24.1,0-43.6,19.6-43.6,43.6v85.7l-6.1-7c-0.7-0.8-1.4-1.5-2.1-2.2c-0.1-0.1-0.2-0.2-0.3-0.3   c-10-10-23.1-15-36.2-15c-13.1,0-26.2,5-36.2,15l-36.7,36.7C286.2,322,276.6,345.1,276.6,369.6z M356.5,284.2   c10.9-10.9,28.7-11,39.7-0.2l0.2,0.2c5.4,5.4,8.3,12.5,8.3,20c0,7.5-2.9,14.6-8.3,20l-34.1,34.1c-0.5,0.5-1,1-1.6,1.5l0.1,0.1   l-0.5,0.5c-2.2,2.2-3.4,5.1-3.4,8.1c0,3.1,1.2,6,3.4,8.1c4.5,4.5,11.8,4.5,16.3,0l64.3-64.3c2.2-2.2,3.4-5.1,3.4-8.1V191.7   c0-11.4,9.3-20.6,20.6-20.6h20.6l0,176.5l-93,93c-2.2,2.2-3.4,5.1-3.4,8.1v36.7h-89.5V369.6c0-18.4,7.2-35.7,20.2-48.7L356.5,284.2   z"></path>
</g>
</svg>